<?xml version="1.0" standalone="no"?>
<!DOCTYPE svg PUBLIC "-//W3C//DTD SVG 20010904//EN"
 "http://www.w3.org/TR/2001/REC-SVG-20010904/DTD/svg10.dtd">
<svg version="1.0" xmlns="http://www.w3.org/2000/svg"
 width="1000.000000pt" height="294.000000pt" viewBox="0 0 1000.000000 294.000000"
 preserveAspectRatio="xMidYMid meet">
<metadata>
Created by potrace 1.16, written by Peter Selinger 2001-2019
</metadata>
<g transform="translate(0.000000,294.000000) scale(0.100000,-0.100000)"
fill="#000000" stroke="none">
<path d="M7832 2379 c-18 -5 -30 -14 -27 -19 3 -5 0 -7 -8 -4 -21 8 -77 -44
-98 -91 -11 -24 -19 -64 -19 -99 -1 -216 269 -298 400 -121 65 87 139 119 225
95 43 -12 66 -31 137 -114 63 -75 176 -98 266 -55 46 23 137 133 125 152 -3 6
-1 7 5 3 6 -4 25 0 41 9 66 34 147 10 195 -57 70 -98 192 -113 271 -33 121
120 10 323 -158 291 -42 -8 -120 -73 -113 -93 3 -8 2 -12 -3 -9 -5 3 -15 -2
-22 -11 -8 -9 -28 -22 -46 -30 -78 -32 -143 -5 -203 85 -20 29 -41 49 -48 47
-7 -3 -11 -1 -7 4 3 5 -12 20 -32 33 -30 18 -52 23 -103 23 -83 0 -136 -29
-194 -104 -56 -73 -94 -93 -172 -89 -72 4 -112 28 -162 94 -19 26 -38 42 -44
38 -7 -4 -8 -3 -4 4 10 16 -67 52 -122 57 -26 2 -62 0 -80 -6z m844 -68 c61
-28 89 -73 89 -143 0 -64 -19 -97 -76 -136 -28 -19 -44 -23 -95 -20 -35 1 -61
5 -58 9 6 10 -26 20 -39 12 -7 -3 -9 -3 -5 2 4 4 -4 27 -17 50 -51 87 -22 181
70 229 39 21 81 20 131 -3z m609 -86 c39 -38 31 -106 -16 -130 -41 -22 -77
-18 -104 10 -54 53 -16 145 60 145 25 0 44 -8 60 -25z"/>
<path d="M8563 2250 c-50 -20 -62 -106 -20 -148 24 -24 41 -27 102 -20 41 4
70 78 50 126 -21 48 -74 65 -132 42z"/>
<path d="M6000 1599 l0 -500 37 -15 c52 -22 171 -29 242 -14 67 14 137 51 133
69 -1 7 2 10 8 6 27 -17 103 95 126 185 47 183 -32 376 -173 424 -58 20 -167
21 -221 2 -22 -8 -43 -12 -46 -9 -3 4 -6 84 -6 180 l0 173 -50 0 -50 0 0 -501z
m368 47 c65 -45 87 -101 86 -216 0 -114 -22 -169 -85 -224 -68 -58 -151 -78
-231 -55 l-38 10 0 244 c0 135 1 245 3 245 1 0 20 7 42 15 25 10 66 14 111 12
59 -2 78 -7 112 -31z"/>
<path d="M7463 1924 l-42 -15 -3 -77 -3 -77 -52 2 c-47 2 -52 0 -55 -20 -2
-12 -2 -32 1 -45 3 -21 8 -23 55 -21 l51 3 5 -269 c3 -149 9 -277 13 -285 17
-32 62 -54 119 -58 48 -4 67 0 123 26 36 17 65 34 65 37 0 3 -7 19 -15 35
l-15 30 -38 -20 c-20 -11 -56 -20 -79 -20 -73 0 -73 -1 -73 276 l0 244 86 0
85 0 15 35 c7 19 14 39 14 45 0 6 -38 10 -100 10 l-100 0 0 90 c0 50 -3 90 -7
89 -5 0 -27 -7 -50 -15z"/>
<path d="M775 1773 c-75 -27 -114 -60 -141 -117 -13 -28 -24 -57 -24 -64 0
-17 37 -30 101 -33 52 -3 55 -2 69 29 8 17 24 38 35 46 29 22 101 20 124 -3
21 -21 37 -81 28 -104 -3 -8 -40 -18 -97 -25 -114 -16 -179 -42 -224 -92 -38
-42 -56 -92 -56 -158 0 -116 79 -192 197 -192 71 1 119 17 170 58 l39 30 19
-29 c11 -16 30 -36 43 -45 25 -16 27 -15 107 54 41 37 42 43 13 91 -21 33 -23
51 -28 231 -6 207 -11 230 -62 276 -46 43 -90 58 -178 61 -63 3 -98 -1 -135
-14z m193 -391 c7 -47 -19 -131 -49 -162 -76 -76 -170 7 -129 114 16 42 87 77
150 73 18 -2 26 -9 28 -25z"/>
<path d="M1577 1778 c-24 -7 -51 -26 -76 -55 l-40 -44 -3 43 -3 43 -77 3 c-74
3 -78 2 -83 -20 -3 -13 -4 -169 -3 -348 l3 -325 85 0 85 0 5 240 c4 208 7 245
23 268 30 46 98 49 127 5 12 -18 16 -72 18 -270 l4 -248 83 0 83 0 4 243 c3
264 6 275 61 298 37 16 77 2 94 -31 9 -18 13 -93 13 -267 l0 -243 85 0 c82 0
85 1 91 25 3 13 4 145 2 292 -4 281 -5 290 -52 341 -75 83 -224 72 -285 -21
l-24 -37 -17 28 c-28 44 -65 73 -107 83 -45 10 -46 10 -96 -3z"/>
<path d="M2448 1773 c-85 -28 -158 -110 -158 -177 0 -27 5 -29 108 -40 40 -4
43 -2 56 29 19 44 52 65 102 65 55 0 84 -33 84 -95 l0 -42 -72 -7 c-207 -21
-303 -101 -301 -252 1 -123 74 -194 199 -194 65 0 144 31 178 68 l18 21 43
-46 c48 -54 45 -54 135 25 l44 39 -29 44 -30 44 -5 200 c-6 217 -11 241 -66
284 -62 49 -212 65 -306 34z m192 -410 c0 -71 -17 -119 -51 -147 -51 -43 -108
-31 -128 26 -31 87 39 164 152 167 26 1 27 -1 27 -46z"/>
<path d="M3740 1777 c-103 -29 -167 -95 -202 -210 -26 -86 -22 -244 8 -319 51
-126 140 -192 258 -192 159 0 275 124 292 313 17 177 -61 347 -180 396 -49 20
-127 25 -176 12z m117 -142 c35 -25 47 -80 48 -215 0 -105 -3 -131 -20 -165
-40 -81 -110 -85 -149 -10 -26 49 -35 229 -16 312 18 81 81 117 137 78z"/>
<path d="M4477 1775 c-47 -16 -81 -47 -99 -88 l-13 -32 -5 55 -5 55 -80 0 -80
0 0 -345 0 -345 85 0 85 0 5 235 c3 129 9 242 14 250 37 62 95 79 132 39 17
-19 19 -43 24 -273 l5 -251 85 0 85 0 3 255 c1 159 -2 275 -9 308 -14 71 -62
125 -124 141 -54 14 -61 13 -108 -4z"/>
<path d="M2982 1703 l3 -68 113 -3 c61 -1 112 -5 112 -8 0 -4 -57 -88 -127
-188 l-127 -181 -4 -77 c-5 -94 2 -100 85 -67 84 33 252 33 336 0 81 -32 89
-26 85 56 l-3 68 -42 23 c-24 13 -77 28 -126 35 l-85 12 80 115 c166 236 168
240 168 280 0 74 13 70 -242 70 l-229 0 3 -67z"/>
<path d="M5132 1754 c-18 -8 -30 -19 -27 -24 3 -5 0 -8 -7 -5 -7 3 -26 -7 -41
-21 -16 -14 -30 -24 -32 -23 -2 2 -7 20 -12 39 -8 31 -13 35 -46 38 l-37 2 0
-344 0 -345 45 2 45 2 0 256 0 257 56 38 c50 34 63 39 115 39 56 0 59 2 69 29
5 15 7 33 3 39 -3 6 -1 7 5 3 7 -4 12 -1 12 7 0 8 -7 18 -16 21 -27 10 -98 5
-132 -10z"/>
<path d="M5487 1756 c-51 -19 -107 -58 -107 -75 0 -8 -3 -11 -7 -8 -3 4 -16
-8 -28 -26 -57 -85 -79 -236 -50 -347 25 -97 103 -207 130 -182 5 4 5 2 2 -4
-4 -7 11 -19 36 -30 61 -28 207 -26 263 3 113 60 174 176 174 334 0 75 -29
184 -58 214 -10 11 -21 28 -25 38 -8 22 -90 74 -137 87 -49 14 -148 12 -193
-4z m193 -88 c79 -40 120 -128 120 -257 0 -166 -105 -286 -234 -267 -123 19
-200 152 -182 317 6 62 38 150 62 170 8 6 11 16 7 23 -3 6 -2 8 2 3 5 -4 18
-1 30 7 49 32 135 34 195 4z"/>
<path d="M6833 1750 c-65 -26 -134 -100 -161 -173 -64 -170 -16 -384 102 -464
63 -43 116 -56 202 -51 168 11 269 128 281 324 5 75 2 103 -15 161 -44 144
-132 214 -277 220 -63 2 -91 -1 -132 -17z m206 -80 c80 -40 121 -126 121 -250
0 -92 -23 -163 -70 -214 -55 -59 -116 -77 -193 -55 -187 52 -213 429 -36 517
56 28 127 29 178 2z"/>
<path d="M8320 1761 c-194 -60 -288 -291 -207 -510 19 -54 92 -145 107 -136 4
3 10 -2 13 -10 10 -25 113 -48 192 -43 74 5 185 46 185 68 0 6 -4 9 -9 6 -5
-4 -7 2 -5 11 9 38 -10 45 -59 23 -102 -45 -199 -35 -269 28 -59 53 -81 110
-82 207 0 109 22 173 80 223 75 67 177 78 282 32 l42 -19 0 48 0 47 -53 17
c-55 17 -172 21 -217 8z"/>
<path d="M8804 1751 c-83 -38 -120 -123 -94 -216 12 -41 35 -73 49 -67 3 1 6
-1 6 -5 0 -5 4 -14 8 -21 12 -17 156 -84 168 -76 5 3 8 2 7 -3 -1 -4 12 -23
30 -42 26 -26 32 -41 32 -75 -1 -76 -56 -111 -167 -104 -38 2 -83 11 -102 21
-19 9 -37 17 -41 17 -5 0 -40 -64 -40 -74 0 -2 32 -14 70 -26 92 -30 203 -25
276 11 27 13 48 30 46 37 -1 8 2 11 6 8 12 -7 38 22 47 52 12 41 7 120 -11
157 -9 20 -35 49 -58 64 -54 37 -136 72 -149 64 -6 -3 -7 -1 -3 5 4 6 -6 17
-22 26 -68 35 -83 116 -31 160 26 22 40 26 93 26 35 0 85 -7 112 -15 27 -8 50
-15 52 -15 2 0 2 19 0 42 -3 40 -5 43 -43 54 -62 19 -193 16 -241 -5z"/>
<path d="M7848 1409 l3 -341 47 4 47 3 3 338 2 337 -52 0 -53 0 3 -341z"/>
<path d="M3072 1024 c-77 -20 -138 -56 -127 -74 3 -4 62 -5 133 -2 152 6 172
-1 172 -55 0 -20 -16 -83 -36 -141 -19 -57 -33 -106 -30 -109 14 -14 49 14 85
67 42 63 64 122 81 208 13 70 1 98 -47 111 -53 15 -168 12 -231 -5z"/>
<path d="M1173 984 c-3 -8 -2 -19 3 -23 235 -207 513 -341 815 -392 106 -18
151 -20 309 -16 201 6 301 22 472 77 173 57 388 177 388 219 0 34 -30 32 -142
-9 -237 -88 -419 -121 -688 -127 -224 -5 -356 7 -546 52 -178 42 -388 122
-530 201 -70 39 -72 40 -81 18z"/>
</g>
</svg>
