<?xml version="1.0" standalone="no"?>
<!DOCTYPE svg PUBLIC "-//W3C//DTD SVG 20010904//EN"
 "http://www.w3.org/TR/2001/REC-SVG-20010904/DTD/svg10.dtd">
<svg version="1.0" xmlns="http://www.w3.org/2000/svg"
 width="267.000000pt" height="106.000000pt" viewBox="0 0 267.000000 106.000000"
 preserveAspectRatio="xMidYMid meet">

<g transform="translate(0.000000,106.000000) scale(0.100000,-0.100000)"
fill="#000000" stroke="none">
<path d="M503 1033 c15 -2 39 -2 55 0 15 2 2 4 -28 4 -30 0 -43 -2 -27 -4z"/>
<path d="M409 1013 c-11 -15 -11 -16 1 -5 20 18 41 15 67 -10 21 -20 22 -22 5
-35 -15 -13 -15 -13 6 -3 29 14 47 4 30 -18 -10 -14 -10 -15 2 -4 8 6 21 12
29 12 11 0 10 -5 -5 -22 l-19 -23 22 19 c23 19 22 36 -1 36 -7 0 -31 16 -53
35 -46 39 -64 43 -84 18z"/>
<path d="M608 1023 c6 -2 18 -2 25 0 6 3 1 5 -13 5 -14 0 -19 -2 -12 -5z"/>
<path d="M680 1006 c67 -25 135 -64 185 -106 l50 -42 -50 48 c-48 45 -173 115
-205 113 -8 0 1 -6 20 -13z"/>
<path d="M361 980 c-13 -11 -19 -20 -13 -20 5 0 15 7 22 15 7 8 17 12 23 8 6
-3 7 -1 3 5 -9 15 -6 15 -35 -8z"/>
<path d="M249 949 l-24 -20 28 17 c15 9 27 18 27 20 0 8 -8 4 -31 -17z"/>
<path d="M584 932 c3 -2 1 -14 -5 -26 -9 -19 -9 -19 4 -3 8 9 22 17 32 17 16
0 16 -3 -6 -27 l-24 -28 27 24 c31 27 29 36 -7 43 -14 3 -23 3 -21 0z"/>
<path d="M179 893 l-34 -38 38 34 c34 33 42 41 34 41 -2 0 -19 -17 -38 -37z"/>
<path d="M400 920 c-9 -6 -10 -10 -3 -10 6 0 15 5 18 10 8 12 4 12 -15 0z"/>
<path d="M478 888 l-23 -33 33 23 c18 13 30 28 27 33 -9 14 -12 12 -37 -23z"/>
<path d="M689 899 c23 -9 23 -10 5 -32 -18 -22 -18 -22 6 1 21 19 23 24 10 32
-8 5 -22 9 -30 9 -8 0 -4 -5 9 -10z"/>
<path d="M650 870 c-6 -11 -8 -20 -6 -20 3 0 10 9 16 20 6 11 8 20 6 20 -3 0
-10 -9 -16 -20z"/>
<path d="M747 875 c3 -8 9 -12 14 -9 12 7 11 11 -5 17 -10 4 -13 1 -9 -8z"/>
<path d="M555 870 c-3 -5 -3 -10 2 -10 4 0 0 -5 -9 -11 -10 -5 -18 -15 -18
-21 0 -6 8 -4 18 5 10 10 19 24 19 32 0 18 -3 19 -12 5z"/>
<path d="M789 861 c12 -8 12 -12 2 -25 -11 -13 -9 -13 12 -3 22 10 23 13 8 24
-9 7 -20 12 -26 13 -5 0 -4 -4 4 -9z"/>
<path d="M730 830 c-6 -11 -8 -20 -6 -20 3 0 10 9 16 20 6 11 8 20 6 20 -3 0
-10 -9 -16 -20z"/>
<path d="M910 846 c0 -2 8 -10 18 -17 15 -13 16 -12 3 4 -13 16 -21 21 -21 13z"/>
<path d="M123 828 c-15 -20 -25 -38 -20 -38 3 0 12 11 21 25 17 26 16 35 -1
13z"/>
<path d="M636 828 c3 -4 1 -8 -4 -8 -6 0 -13 -8 -16 -17 -5 -13 0 -11 18 6 30
29 30 28 11 28 -8 0 -12 -4 -9 -9z"/>
<path d="M1235 828 c-29 -15 -45 -38 -45 -63 0 -24 29 -55 51 -54 8 0 4 4 -9
9 -27 11 -36 32 -28 63 10 40 81 60 129 36 21 -10 21 -10 3 5 -23 18 -72 20
-101 4z"/>
<path d="M1492 831 c53 -11 68 -27 68 -73 0 -45 -22 -93 -49 -108 -25 -13 -76
-13 -104 1 -21 10 -21 10 -3 -5 25 -20 85 -20 114 0 31 22 52 66 52 113 0 48
-35 82 -84 80 -30 -1 -30 -1 6 -8z"/>
<path d="M1617 833 c-4 -3 -7 -17 -7 -30 0 -22 2 -23 94 -23 90 0 95 -1 99
-22 4 -20 4 -19 6 5 l1 27 -95 0 c-89 0 -95 1 -95 21 0 19 4 20 149 17 82 -2
147 0 144 5 -5 9 -287 10 -296 0z"/>
<path d="M1406 799 c-14 -17 -26 -38 -26 -47 1 -9 7 -3 14 14 8 17 24 39 37
48 13 9 18 16 12 16 -6 0 -23 -14 -37 -31z"/>
<path d="M846 812 c-3 -5 5 -8 17 -8 16 1 22 -4 20 -18 -1 -13 2 -15 10 -7 7
7 6 15 -3 26 -14 16 -36 20 -44 7z"/>
<path d="M950 790 c6 -11 13 -20 16 -20 2 0 0 9 -6 20 -6 11 -13 20 -16 20 -2
0 0 -9 6 -20z"/>
<path d="M1900 800 c0 -5 -9 -10 -20 -10 -11 0 -20 -4 -20 -9 0 -4 11 -6 25
-3 14 2 25 11 25 18 0 8 -2 14 -5 14 -3 0 -5 -4 -5 -10z"/>
<path d="M125 760 c-24 -25 -41 -36 -46 -29 -4 7 -12 -5 -19 -25 -7 -21 -10
-40 -7 -42 3 -3 8 9 12 26 l7 32 29 -34 c15 -18 28 -30 29 -25 0 4 -9 16 -21
28 l-21 21 28 29 c15 15 30 26 34 24 4 -3 10 4 13 15 3 11 4 20 3 20 -1 0 -19
-18 -41 -40z"/>
<path d="M716 788 c3 -5 10 -6 15 -3 13 9 11 12 -6 12 -8 0 -12 -4 -9 -9z"/>
<path d="M1254 789 c-9 -14 4 -24 49 -39 30 -9 37 -16 37 -36 0 -14 -5 -35
-11 -47 -10 -22 -10 -22 6 -2 9 11 15 33 13 50 -3 25 -10 32 -45 45 -24 8 -43
18 -43 22 0 12 28 10 35 -2 3 -5 11 -10 18 -10 14 0 -24 29 -40 30 -6 0 -15
-5 -19 -11z"/>
<path d="M1340 790 c-13 -8 -12 -10 3 -10 9 0 17 5 17 10 0 12 -1 12 -20 0z"/>
<path d="M1459 783 c-13 -16 -12 -17 3 -5 23 19 38 7 39 -31 2 -31 2 -31 6 -4
4 27 -10 57 -27 57 -4 0 -14 -8 -21 -17z"/>
<path d="M819 773 c-13 -16 -12 -17 4 -4 9 7 17 15 17 17 0 8 -8 3 -21 -13z"/>
<path d="M971 760 c-1 -3 8 -27 19 -55 10 -27 19 -43 19 -35 0 14 -36 101 -38
90z"/>
<path d="M1442 740 c0 -14 2 -19 5 -12 2 6 2 18 0 25 -3 6 -5 1 -5 -13z"/>
<path d="M1603 745 c-3 -9 -3 -19 1 -22 3 -4 6 1 6 10 0 14 10 17 54 17 49 0
55 -2 59 -22 4 -20 4 -19 6 5 1 27 0 27 -59 27 -45 0 -62 -4 -67 -15z"/>
<path d="M1852 735 c0 -16 2 -22 5 -12 2 9 2 23 0 30 -3 6 -5 -1 -5 -18z"/>
<path d="M795 740 c-3 -5 -1 -10 4 -10 6 0 11 5 11 10 0 6 -2 10 -4 10 -3 0
-8 -4 -11 -10z"/>
<path d="M952 728 c7 -15 15 -23 17 -17 2 6 -4 18 -13 27 -15 15 -15 15 -4
-10z"/>
<path d="M1370 714 c0 -10 5 -26 10 -34 8 -11 9 -7 4 15 -8 37 -14 45 -14 19z"/>
<path d="M1792 700 c0 -19 2 -27 5 -17 2 9 2 25 0 35 -3 9 -5 1 -5 -18z"/>
<path d="M194 670 l-42 -39 22 -19 c24 -22 60 -37 51 -22 -3 6 -12 10 -19 10
-8 0 -19 7 -26 15 -11 14 -7 22 25 55 50 51 42 51 -11 0z"/>
<path d="M875 690 c-10 -11 -15 -23 -12 -27 4 -3 7 -1 7 6 0 7 5 9 13 5 6 -4
9 -4 5 1 -4 4 -3 14 3 22 18 21 4 15 -16 -7z"/>
<path d="M1270 703 c5 -2 10 -9 10 -14 0 -12 -37 -12 -45 1 -10 16 -55 11 -62
-7 -10 -26 32 -53 81 -52 l41 2 -45 6 c-53 8 -70 17 -70 37 0 17 33 18 59 2
21 -13 55 -4 49 14 -2 6 -10 13 -16 14 -7 1 -8 0 -2 -3z"/>
<path d="M1487 695 c-8 -18 -33 -20 -40 -2 -4 9 -6 9 -6 -1 -1 -20 29 -26 47
-9 9 9 13 19 10 22 -3 3 -8 -1 -11 -10z"/>
<path d="M1592 680 c0 -19 2 -27 5 -17 2 9 2 25 0 35 -3 9 -5 1 -5 -18z"/>
<path d="M1652 690 c0 -14 2 -19 5 -12 2 6 2 18 0 25 -3 6 -5 1 -5 -13z"/>
<path d="M1842 675 c0 -16 2 -22 5 -12 2 9 2 23 0 30 -3 6 -5 -1 -5 -18z"/>
<path d="M945 630 c-31 -32 -35 -40 -20 -40 10 0 15 3 11 7 -3 4 8 22 26 40
17 18 30 33 27 33 -3 0 -23 -18 -44 -40z"/>
<path d="M1640 651 c0 -5 -12 -12 -27 -14 -26 -4 -26 -4 5 -6 22 -1 32 3 32
14 0 8 -2 15 -5 15 -3 0 -5 -4 -5 -9z"/>
<path d="M1780 648 c0 -14 8 -18 33 -17 27 2 28 2 7 6 -14 3 -28 10 -32 17 -5
7 -8 5 -8 -6z"/>
<path d="M42 625 c0 -16 2 -22 5 -12 2 9 2 23 0 30 -3 6 -5 -1 -5 -18z"/>
<path d="M312 629 c-8 -12 -9 -18 -3 -15 5 4 12 -6 14 -21 2 -17 4 -11 4 15 0
23 -1 42 -1 42 -1 0 -7 -9 -14 -21z"/>
<path d="M1007 630 c-3 -11 -1 -20 4 -20 5 0 9 9 9 20 0 11 -2 20 -4 20 -2 0
-6 -9 -9 -20z"/>
<path d="M405 601 c-3 -5 -1 -12 5 -16 5 -3 10 1 10 9 0 18 -6 21 -15 7z"/>
<path d="M1167 603 c-4 -3 -7 -15 -7 -25 0 -15 8 -18 55 -18 58 0 69 -11 38
-37 -16 -13 -16 -13 5 -3 42 20 23 45 -36 48 -37 2 -52 7 -52 18 0 17 93 20
134 4 32 -12 35 -51 5 -81 -11 -11 -18 -28 -15 -37 2 -9 7 -27 11 -40 6 -21 4
-23 -21 -20 -24 2 -30 9 -37 41 -14 57 -47 44 -47 -19 0 -19 -5 -24 -25 -24
-24 0 -25 2 -19 43 3 23 7 48 10 55 2 6 -1 12 -6 12 -6 0 -10 -13 -10 -29 0
-16 -3 -43 -6 -60 -6 -30 -6 -31 30 -31 34 0 36 2 36 34 0 50 17 53 30 6 10
-37 13 -40 45 -40 39 0 39 1 25 49 -8 27 -6 38 11 61 26 34 21 71 -11 87 -26
13 -132 18 -143 6z"/>
<path d="M1423 600 c-13 -5 -32 -24 -43 -42 -68 -111 46 -214 136 -124 21 21
34 43 33 58 -1 19 -2 18 -10 -9 -28 -98 -169 -96 -169 2 0 67 43 115 102 115
32 0 68 -27 68 -50 0 -10 4 -21 9 -24 4 -3 6 6 3 20 -9 50 -72 77 -129 54z"/>
<path d="M1597 603 c-3 -5 -6 -33 -8 -63 l-4 -55 48 -5 c65 -7 64 -24 -3 -30
-48 -4 -55 -8 -58 -27 -3 -22 0 -23 61 -23 50 0 70 5 91 21 27 21 34 57 15 76
-8 8 -7 17 5 34 21 30 20 35 -4 59 -16 16 -33 20 -79 20 -33 0 -62 -3 -64 -7z
m137 -19 c21 -20 20 -26 -4 -57 -17 -21 -18 -26 -5 -31 23 -8 18 -53 -7 -70
-31 -22 -138 -22 -138 -1 0 11 12 15 49 15 49 0 79 18 66 40 -3 5 -29 10 -57
10 -47 0 -50 1 -44 23 3 12 6 37 6 55 l0 32 59 0 c41 0 65 -5 75 -16z"/>
<path d="M1640 545 c0 -23 4 -26 28 -23 19 2 27 9 27 23 0 14 -8 21 -27 23
-24 3 -28 0 -28 -23z m50 0 c0 -8 -9 -15 -20 -15 -11 0 -20 7 -20 15 0 8 9 15
20 15 11 0 20 -7 20 -15z"/>
<path d="M1814 576 c-19 -19 -34 -42 -34 -52 1 -13 5 -8 14 12 40 92 166 83
166 -11 0 -43 -23 -90 -49 -105 -31 -16 -86 -12 -103 8 -9 9 -20 31 -26 47 -6
17 -11 25 -11 18 -2 -21 19 -66 37 -79 23 -18 83 -17 110 2 55 38 69 128 27
169 -37 38 -88 34 -131 -9z"/>
<path d="M1997 603 c-4 -3 -7 -17 -7 -30 0 -17 6 -23 21 -23 17 0 20 -5 15
-27 -2 -16 -8 -50 -11 -76 l-6 -48 33 3 33 3 8 72 c8 63 11 72 30 75 16 2 23
11 25 31 l3 27 -69 0 c-38 0 -72 -3 -75 -7z m133 -23 c0 -14 -7 -20 -24 -20
-23 0 -25 -4 -31 -75 -7 -71 -9 -75 -32 -75 -21 0 -24 4 -19 28 2 15 8 48 11
75 6 43 4 47 -14 47 -14 0 -21 6 -21 20 0 18 7 20 65 20 58 0 65 -2 65 -20z"/>
<path d="M2166 602 c-5 -8 -26 -154 -26 -183 0 -14 7 -19 30 -19 17 0 30 1 31
3 6 18 25 194 22 200 -6 9 -50 9 -57 -1z m48 -34 c-3 -18 -8 -60 -12 -93 -6
-53 -10 -60 -31 -63 -23 -4 -24 -2 -17 50 17 139 17 138 42 138 20 0 22 -4 18
-32z"/>
<path d="M2302 597 c-37 -21 -56 -57 -56 -110 -1 -40 3 -52 23 -68 36 -29 87
-25 122 10 16 16 29 34 29 40 0 18 -58 13 -68 -6 -13 -23 -42 -9 -42 21 0 61
41 103 53 55 4 -16 12 -20 34 -17 23 2 28 7 25 28 -5 51 -68 75 -120 47z m90
-9 c9 -7 19 -23 23 -35 5 -20 3 -23 -19 -23 -17 0 -26 6 -26 15 0 21 -27 30
-45 15 -18 -15 -29 -71 -20 -99 8 -25 40 -28 53 -5 5 9 18 14 33 12 l24 -3
-27 -27 c-46 -47 -121 -35 -133 22 -19 87 76 176 137 128z"/>
<path d="M2477 590 c-53 -42 -43 -92 23 -110 22 -6 40 -15 40 -20 0 -13 -37
-13 -45 0 -8 13 -62 13 -70 0 -12 -19 42 -60 80 -60 115 0 146 112 38 135 -18
3 -33 11 -33 16 0 12 33 12 46 -1 13 -13 54 -1 54 16 0 20 -41 44 -76 44 -17
0 -43 -9 -57 -20z m104 0 c10 -6 19 -15 19 -19 0 -15 -30 -21 -49 -9 -22 13
-55 4 -49 -14 3 -7 20 -17 39 -23 19 -5 40 -14 47 -18 21 -14 14 -54 -14 -76
-43 -34 -134 -23 -134 16 0 12 6 14 28 8 15 -3 38 -7 52 -8 41 -3 30 26 -15
41 -61 20 -71 47 -30 87 26 27 72 33 106 15z"/>
<path d="M33 540 c0 -30 2 -43 4 -27 2 15 2 39 0 55 -2 15 -4 2 -4 -28z"/>
<path d="M271 576 c-13 -16 -1 -29 42 -45 40 -16 33 -4 -9 14 -31 13 -34 17
-24 30 7 8 10 15 7 15 -2 0 -10 -6 -16 -14z"/>
<path d="M1019 573 c-1 -10 0 -30 1 -45 1 -18 -4 -28 -17 -31 -14 -4 -13 -5 5
-6 20 -1 22 3 22 49 0 46 -9 72 -11 33z"/>
<path d="M1435 546 c-23 -34 -17 -100 9 -105 24 -4 46 24 45 58 -1 28 -4 23
-13 -21 -4 -19 -13 -28 -26 -28 -16 0 -20 7 -20 36 0 42 15 74 35 74 7 0 16
-8 19 -17 4 -14 4 -14 3 2 -3 29 -33 30 -52 1z"/>
<path d="M1862 561 c-7 -4 -17 -25 -22 -46 -15 -65 21 -100 54 -53 19 27 21
79 4 96 -14 14 -19 15 -36 3z m36 -39 c4 -36 -13 -72 -32 -72 -18 0 -25 20
-19 56 11 60 46 71 51 16z"/>
<path d="M563 542 c-9 -15 -8 -19 3 -19 8 0 14 9 14 19 0 10 -1 18 -3 18 -1 0
-7 -8 -14 -18z"/>
<path d="M365 530 c-6 -10 1 -14 43 -23 12 -3 20 -1 16 4 -3 5 -16 9 -30 9
-14 0 -22 4 -19 10 3 6 4 10 1 10 -3 0 -8 -5 -11 -10z"/>
<path d="M636 523 c-6 -14 -5 -15 5 -6 7 7 10 15 7 18 -3 3 -9 -2 -12 -12z"/>
<path d="M979 513 c-13 -16 -12 -17 4 -4 9 7 17 15 17 17 0 8 -8 3 -21 -13z"/>
<path d="M455 500 c3 -4 16 -10 30 -12 13 -3 22 -2 20 2 -3 4 -16 10 -30 12
-13 3 -22 2 -20 -2z"/>
<path d="M614 489 c-4 -7 -3 -9 4 -5 5 3 13 0 15 -6 4 -9 6 -10 6 -1 1 17 -16
25 -25 12z"/>
<path d="M701 476 c-7 -8 -8 -17 -3 -20 6 -3 12 3 15 14 6 24 4 25 -12 6z"/>
<path d="M556 471 c-3 -5 1 -11 9 -14 9 -4 12 -1 8 9 -6 16 -10 17 -17 5z"/>
<path d="M42 450 c0 -14 2 -19 5 -12 2 6 2 18 0 25 -3 6 -5 1 -5 -13z"/>
<path d="M595 460 c-7 -12 12 -40 26 -40 5 0 9 5 9 10 0 6 -6 9 -12 8 -7 -2
-12 5 -12 15 2 19 -2 22 -11 7z"/>
<path d="M1011 444 c0 -11 3 -14 6 -6 3 7 2 16 -1 19 -3 4 -6 -2 -5 -13z"/>
<path d="M750 415 c-7 -9 -8 -15 -2 -15 5 0 12 7 16 15 3 8 4 15 2 15 -2 0 -9
-7 -16 -15z"/>
<path d="M51 410 c0 -8 6 -28 14 -45 17 -39 18 -21 0 25 -7 19 -14 28 -14 20z"/>
<path d="M653 404 c-3 -8 3 -25 14 -37 11 -12 26 -32 32 -45 12 -22 31 -22 31
1 0 8 -3 8 -9 -1 -6 -11 -10 -10 -15 4 -8 20 21 57 37 47 6 -4 7 -1 2 6 -5 9
-13 7 -29 -8 -24 -23 -38 -19 -29 7 4 14 3 15 -6 2 -9 -12 -11 -12 -16 2 -4
10 -4 22 0 28 3 5 4 10 0 10 -3 0 -8 -7 -12 -16z"/>
<path d="M996 395 c-3 -9 -6 -22 -5 -28 0 -7 5 -1 10 12 5 13 8 26 5 28 -2 2
-6 -3 -10 -12z"/>
<path d="M2055 368 c-4 -13 -25 -173 -25 -190 0 -4 33 -7 73 -6 l72 2 -69 3
-68 4 6 32 c3 18 8 60 12 95 6 57 8 62 31 62 23 0 24 -2 18 -47 -3 -27 -9 -60
-11 -75 -3 -16 -2 -28 3 -28 5 0 9 8 9 18 0 9 4 45 8 80 l7 62 -31 0 c-17 0
-32 -6 -35 -12z"/>
<path d="M2261 358 c-5 -13 -25 -60 -45 -105 l-35 -83 28 0 c26 0 31 6 54 67
27 74 25 75 42 -29 5 -34 9 -38 35 -38 27 0 30 3 29 33 -2 30 -2 30 -6 5 -3
-19 -10 -28 -23 -28 -21 0 -26 12 -35 88 -4 28 -10 52 -15 52 -4 0 -18 -30
-32 -67 -16 -44 -31 -69 -42 -71 -22 -5 -18 11 30 116 28 61 37 72 58 72 21 0
26 -6 35 -50 6 -28 11 -58 11 -67 0 -9 3 -14 6 -10 4 3 1 36 -6 72 -12 65 -12
65 -46 65 -26 0 -37 -5 -43 -22z"/>
<path d="M2427 373 c-3 -5 -8 -34 -12 -65 l-7 -58 51 0 c39 0 51 -4 51 -15 0
-12 -13 -15 -55 -15 -52 0 -55 -1 -55 -25 0 -24 2 -25 65 -25 57 0 69 3 90 25
27 26 32 54 13 73 -8 8 -8 15 1 26 16 19 10 68 -9 74 -12 4 -13 2 -2 -9 17
-19 15 -56 -5 -67 -16 -9 -16 -11 0 -27 22 -22 21 -41 -3 -65 -25 -25 -140
-30 -140 -6 0 11 15 16 53 18 45 3 52 6 55 26 3 20 0 22 -49 22 l-52 0 7 38
c3 20 6 45 6 54 0 14 12 18 58 21 l57 3 -57 2 c-31 1 -59 -1 -61 -5z"/>
<path d="M772 327 c-17 -18 -19 -24 -8 -24 8 0 13 4 10 9 -3 4 -1 8 4 8 6 0
12 7 16 15 8 21 3 19 -22 -8z"/>
<path d="M2470 315 c0 -23 4 -26 28 -23 19 2 27 9 27 23 0 14 -8 21 -27 23
-24 3 -28 0 -28 -23z m48 3 c-7 -19 -38 -22 -38 -4 0 10 9 16 21 16 12 0 19
-5 17 -12z"/>
<path d="M966 313 c-6 -14 -5 -15 5 -6 7 7 10 15 7 18 -3 3 -9 -2 -12 -12z"/>
<path d="M108 275 c29 -59 186 -195 226 -195 6 0 -18 17 -53 37 -59 36 -107
80 -159 148 -13 17 -19 21 -14 10z"/>
<path d="M935 264 c-9 -15 -12 -23 -6 -20 11 7 35 46 28 46 -3 0 -12 -12 -22
-26z"/>
<path d="M730 245 c0 -8 4 -15 10 -15 5 0 7 7 4 15 -4 8 -8 15 -10 15 -2 0 -4
-7 -4 -15z"/>
<path d="M783 219 c-28 -26 -43 -48 -43 -64 0 -14 4 -25 9 -25 5 0 7 9 4 20
-6 23 24 63 40 53 6 -3 7 -1 3 5 -4 7 -3 12 1 12 5 0 14 9 21 20 17 28 13 25
-35 -21z"/>
<path d="M855 173 c-33 -31 -46 -47 -30 -36 29 20 104 93 94 93 -2 -1 -31 -26
-64 -57z"/>
<path d="M2171 204 c0 -11 3 -14 6 -6 3 7 2 16 -1 19 -3 4 -6 -2 -5 -13z"/>
<path d="M750 100 c-19 -11 -31 -19 -27 -20 11 0 67 29 67 35 0 7 -1 7 -40
-15z"/>
<path d="M360 71 c8 -5 33 -12 55 -15 28 -4 33 -3 15 2 -46 16 -86 23 -70 13z"/>
<path d="M650 64 l-45 -14 40 6 c22 3 47 10 55 15 21 12 3 10 -50 -7z"/>
<path d="M493 43 c20 -2 54 -2 75 0 20 2 3 4 -38 4 -41 0 -58 -2 -37 -4z"/>
</g>
</svg>
