<?xml version="1.0" standalone="no"?>
<!DOCTYPE svg PUBLIC "-//W3C//DTD SVG 20010904//EN"
 "http://www.w3.org/TR/2001/REC-SVG-20010904/DTD/svg10.dtd">
<svg version="1.0" xmlns="http://www.w3.org/2000/svg"
 width="840.000000pt" height="334.000000pt" viewBox="0 0 840.000000 334.000000"
 preserveAspectRatio="xMidYMid meet">
<metadata>
Created by potrace 1.16, written by Peter Selinger 2001-2019
</metadata>
<g transform="translate(0.000000,334.000000) scale(0.100000,-0.100000)"
fill="#000000" stroke="none">
<path d="M2076 2893 c-4 -21 -9 -50 -12 -65 l-6 -28 -168 0 -168 0 -11 -50
c-22 -100 -75 -90 458 -90 l469 0 11 63 c6 35 11 67 11 70 0 4 -75 7 -166 7
l-166 0 6 28 c3 15 8 44 12 65 l6 37 -135 0 -135 0 -6 -37z"/>
<path d="M2861 2900 c-49 -12 -88 -56 -104 -120 -8 -30 -25 -121 -38 -202
l-23 -148 -103 0 c-57 0 -103 2 -103 6 0 3 13 36 30 75 l29 69 -130 0 -131 0
-21 -50 -21 -50 -103 0 -103 0 0 50 0 50 -125 0 -126 0 7 -75 7 -74 -104 -3
-104 -3 -11 -67 -11 -68 196 -2 196 -3 -2 -25 c-2 -14 -5 -40 -8 -57 l-6 -33
-168 0 -169 0 -11 -63 c-6 -35 -11 -67 -11 -70 0 -4 74 -7 165 -7 143 0 165
-2 165 -16 0 -8 -22 -145 -50 -303 -27 -158 -50 -293 -50 -299 0 -9 39 -12
134 -12 l134 0 12 73 c7 39 31 180 54 312 l42 240 166 3 c126 2 167 6 171 16
3 7 8 38 12 69 l7 57 -167 0 -167 0 6 30 c3 17 9 44 12 60 l6 30 214 0 c118 0
214 -2 214 -4 0 -7 -140 -831 -146 -858 l-6 -28 134 0 134 0 38 223 c20 122
61 357 89 522 l52 300 68 3 c58 3 67 1 67 -14 0 -17 -245 -1489 -255 -1532
l-6 -23 133 3 133 3 6 45 c4 25 46 275 93 555 133 782 156 918 161 943 5 22 8
22 145 22 77 0 140 -4 140 -8 0 -5 -40 -101 -89 -213 l-88 -204 313 -3 c302
-2 314 -3 314 -22 0 -17 -84 -527 -95 -577 l-5 -23 173 0 173 0 43 253 c24
138 48 278 53 310 l10 57 293 0 c271 0 294 1 299 18 3 9 10 40 16 67 6 28 13
58 16 68 5 16 -14 17 -296 17 l-302 0 6 25 c4 14 9 45 13 70 l6 45 -171 0
c-190 0 -176 6 -187 -83 l-7 -57 -134 0 c-74 0 -134 3 -134 8 0 4 24 61 53
127 l53 120 643 3 644 2 -6 -32 c-3 -18 -56 -251 -116 -516 -61 -266 -111
-488 -111 -493 0 -5 74 -9 170 -9 94 0 170 3 170 6 0 4 34 156 144 639 l11 50
318 3 c199 1 317 -1 317 -7 0 -47 -75 -471 -86 -489 -23 -35 -55 -42 -198 -42
l-133 0 -7 -51 c-4 -29 -10 -65 -13 -80 l-5 -29 281 0 c231 0 288 3 318 15 46
19 70 41 90 79 8 16 43 197 77 402 l63 374 -489 0 c-458 0 -488 1 -488 18 0 9
9 49 18 87 l18 70 535 5 534 5 12 65 c7 36 12 73 13 83 0 16 -22 17 -326 17
l-326 0 6 30 c3 17 9 44 12 60 l6 30 -165 0 -165 0 -6 -30 c-3 -16 -9 -43 -12
-60 l-6 -30 -833 0 -834 0 25 55 c13 31 24 58 24 60 0 3 -71 5 -159 5 l-158 0
-27 -60 -27 -60 -368 0 -368 0 8 47 c17 87 17 87 276 93 l227 5 8 45 c4 25 9
57 12 73 l6 27 -318 -1 c-174 -1 -332 -5 -351 -9z"/>
<path d="M1595 1898 c-3 -13 -28 -122 -55 -243 -28 -121 -52 -228 -54 -237 -4
-16 6 -18 105 -18 104 0 109 1 114 23 3 12 28 121 55 242 27 121 52 228 54
238 4 15 -6 17 -105 17 -104 0 -109 -1 -114 -22z"/>
<path d="M2265 1898 c-5 -26 -55 -458 -55 -482 0 -14 16 -16 108 -16 l108 0
27 243 c15 133 27 250 27 260 0 15 -12 17 -105 17 -100 0 -105 -1 -110 -22z"/>
<path d="M3456 1653 l-106 -248 157 -3 c86 -1 160 1 164 5 8 8 209 478 209
488 0 3 -72 5 -159 5 l-159 0 -106 -247z"/>
<path d="M4610 1898 c0 -2 20 -111 45 -242 25 -132 45 -244 45 -248 0 -4 72
-8 161 -8 148 0 160 1 155 18 -2 9 -24 122 -47 250 l-43 232 -158 0 c-87 0
-158 -1 -158 -2z"/>
<path d="M1072 375 c-88 -39 -79 -195 12 -225 79 -26 146 30 146 122 0 88 -79
139 -158 103z m79 -25 c13 0 39 -56 39 -85 0 -37 -26 -82 -51 -88 -58 -15
-103 55 -80 125 12 36 45 60 69 52 8 -2 18 -4 23 -4z"/>
<path d="M3360 372 c-100 -49 -83 -206 25 -226 43 -8 85 2 85 20 0 10 -13 14
-45 14 -61 0 -85 24 -85 85 0 61 24 85 85 85 32 0 45 4 45 14 0 30 -58 34
-110 8z"/>
<path d="M4042 370 c-38 -23 -52 -54 -52 -115 0 -85 75 -134 154 -101 86 36
87 186 2 221 -47 20 -65 19 -104 -5z m94 -33 c23 -20 27 -32 27 -72 0 -40 -4
-52 -27 -72 -49 -42 -96 -12 -104 66 -4 43 -1 53 21 75 32 32 48 33 83 3z"/>
<path d="M4599 369 c-17 -17 -20 -29 -16 -56 5 -26 1 -42 -15 -64 -43 -58 15
-123 91 -101 20 6 52 8 71 5 34 -6 35 -5 17 14 -16 18 -16 23 -2 56 19 47 19
59 -2 55 -9 -2 -20 -14 -23 -27 -8 -34 -24 -36 -44 -5 -17 25 -17 27 3 48 26
27 27 58 3 79 -25 23 -58 21 -83 -4z"/>
<path d="M5305 382 c-56 -19 -85 -60 -85 -123 0 -79 65 -130 146 -114 49 9 37
29 -19 33 -36 2 -51 9 -67 29 -26 33 -26 83 1 117 16 21 29 26 64 26 45 0 68
16 44 31 -16 10 -54 10 -84 1z"/>
<path d="M5972 375 c-88 -39 -79 -195 12 -225 79 -26 146 30 146 122 0 88 -79
139 -158 103z m73 -21 c8 -4 22 -19 30 -35 41 -77 -12 -168 -80 -137 -84 38
-36 204 50 172z"/>
<path d="M6395 381 c-76 -32 -93 -152 -29 -212 33 -31 101 -33 134 -4 102 91
17 266 -105 216z m80 -46 c51 -50 24 -157 -40 -157 -64 -1 -91 107 -40 157 13
14 31 25 40 25 9 0 27 -11 40 -25z"/>
<path d="M6645 372 c-47 -22 -65 -55 -65 -118 0 -37 6 -51 30 -75 28 -28 34
-30 97 -27 l68 3 0 60 0 60 -37 3 c-28 2 -38 -1 -38 -11 0 -8 9 -17 20 -20 15
-4 20 -14 20 -36 0 -29 -2 -31 -39 -31 -48 0 -81 35 -81 85 0 18 9 44 21 59
17 22 28 26 69 26 42 0 71 13 58 25 -15 15 -87 13 -123 -3z"/>
<path d="M7175 375 c-65 -23 -93 -79 -74 -148 16 -58 51 -78 128 -75 l66 3 0
60 c0 58 -1 60 -28 63 -16 2 -35 1 -43 -2 -19 -7 -6 -36 17 -36 14 0 19 -7 19
-30 0 -28 -2 -30 -38 -30 -52 0 -82 32 -82 86 0 56 31 84 93 84 53 0 70 16 32
30 -33 13 -41 12 -90 -5z"/>
<path d="M7375 381 l-30 -6 -3 -113 c-3 -107 -2 -112 18 -112 16 0 20 7 20 38
0 54 12 69 44 54 17 -8 27 -22 32 -47 6 -35 22 -51 43 -43 6 2 2 26 -9 58 -16
48 -17 57 -4 71 19 21 18 63 -3 81 -22 20 -69 28 -108 19z"/>
<path d="M7593 370 c-42 -25 -53 -48 -53 -109 0 -90 72 -141 152 -108 87 36
90 186 4 222 -47 20 -65 19 -103 -5z m93 -33 c23 -20 27 -32 27 -72 0 -40 -4
-52 -27 -72 -50 -43 -106 -4 -106 74 0 33 6 50 25 68 30 31 47 31 81 2z"/>
<path d="M210 265 c0 -96 3 -115 15 -115 12 0 15 16 15 85 0 47 3 85 8 85 4
-1 28 -38 53 -83 32 -58 52 -83 67 -85 21 -3 22 -1 22 112 0 96 -3 116 -15
116 -12 0 -15 -16 -15 -87 l0 -88 -51 88 c-42 71 -55 87 -75 87 -24 0 -24 0
-24 -115z"/>
<path d="M450 265 l0 -115 70 0 c56 0 70 3 70 15 0 11 -12 15 -50 15 l-50 0 0
35 c0 35 0 35 46 35 38 0 45 3 42 18 -2 11 -13 17 -33 18 -52 1 -55 3 -55 34
0 29 1 30 50 30 38 0 50 4 50 15 0 12 -14 15 -70 15 l-70 0 0 -115z"/>
<path d="M623 360 c3 -11 15 -63 28 -115 21 -85 25 -95 46 -95 18 0 24 8 33
43 6 23 17 62 24 87 l12 45 17 -74 c9 -40 17 -80 17 -88 0 -10 9 -13 27 -11
24 3 28 10 55 108 33 125 33 120 9 120 -15 0 -22 -15 -37 -85 -10 -46 -21 -81
-25 -77 -3 4 -11 34 -18 67 -19 92 -20 95 -45 95 -21 0 -25 -8 -41 -85 -10
-47 -21 -85 -25 -85 -4 0 -13 33 -20 73 -16 93 -18 97 -42 97 -15 0 -19 -5
-15 -20z"/>
<path d="M1276 328 c-4 -29 -5 -80 -4 -113 2 -48 7 -60 21 -63 14 -3 17 4 17
43 0 30 5 47 14 51 25 10 53 -14 60 -51 7 -34 24 -51 45 -43 6 2 2 26 -9 58
-16 48 -17 57 -4 71 20 22 18 63 -4 82 -13 12 -36 17 -75 17 l-56 0 -5 -52z"/>
<path d="M1570 265 l0 -115 70 0 c56 0 70 3 70 15 0 11 -12 15 -50 15 l-50 0
0 35 c0 35 0 35 45 35 32 0 45 4 45 14 0 16 -27 29 -41 20 -21 -13 -49 8 -49
37 0 28 1 29 50 29 38 0 50 4 50 15 0 12 -14 15 -70 15 l-70 0 0 -115z"/>
<path d="M1760 265 c0 -96 3 -115 15 -115 12 0 15 17 15 93 l0 92 53 -90 c38
-65 59 -91 75 -93 22 -3 22 -2 22 112 0 96 -3 116 -15 116 -12 0 -15 -17 -15
-87 l-1 -88 -51 88 c-41 71 -55 87 -74 87 -24 0 -24 -1 -24 -115z"/>
<path d="M2217 373 c-7 -13 -67 -202 -67 -213 0 -6 9 -10 19 -10 13 0 21 9 26
30 6 28 10 30 50 30 40 0 44 -2 50 -30 5 -23 12 -30 30 -30 l23 0 -35 107
c-19 59 -37 111 -39 115 -7 10 -51 10 -57 1z"/>
<path d="M2640 265 l0 -115 70 0 c56 0 70 3 70 15 0 11 -12 15 -50 15 l-50 0
0 35 c0 35 0 35 45 35 33 0 45 4 45 14 0 10 -14 16 -42 18 -40 3 -43 5 -46 36
-3 32 -3 32 42 32 34 0 46 4 46 15 0 12 -14 15 -65 15 l-65 0 0 -115z"/>
<path d="M2820 265 l0 -115 60 0 c102 0 140 34 140 126 0 37 -6 51 -29 75 -27
27 -35 29 -100 29 l-71 0 0 -115z m148 58 c19 -26 15 -87 -9 -117 -16 -20 -29
-26 -60 -26 l-39 0 0 84 c0 72 3 85 18 88 26 6 75 -10 90 -29z"/>
<path d="M3070 291 c0 -106 3 -117 42 -137 40 -21 91 -11 118 23 17 21 20 40
20 114 0 82 -2 89 -20 89 -18 0 -20 -7 -20 -85 0 -72 -3 -88 -20 -105 -24 -24
-29 -24 -58 -4 -20 14 -22 23 -22 105 0 82 -1 89 -20 89 -19 0 -20 -7 -20 -89z"/>
<path d="M3539 265 c-34 -107 -35 -115 -17 -115 12 0 23 11 29 30 10 27 15 30
54 30 39 0 43 -2 49 -30 4 -21 11 -30 26 -30 27 0 26 9 -13 125 -32 94 -35
100 -63 103 -29 3 -30 2 -65 -113z"/>
<path d="M4250 266 c0 -109 1 -116 20 -116 18 0 20 7 20 88 l0 87 52 -87 c42
-70 57 -88 75 -88 23 0 23 2 23 115 0 108 -1 115 -20 115 -17 0 -19 -8 -22
-82 l-3 -83 -45 80 c-37 66 -50 81 -73 83 l-27 3 0 -115z"/>
<path d="M5050 265 l0 -115 70 0 c54 0 70 3 70 14 0 11 -15 16 -52 18 -51 3
-53 4 -56 35 -3 31 -3 32 44 35 65 4 70 26 7 30 -46 3 -48 4 -48 33 0 29 2 30
48 33 33 2 47 7 47 18 0 11 -15 14 -65 14 l-65 0 0 -115z"/>
<path d="M5440 265 c0 -108 1 -115 20 -115 17 0 20 7 20 50 l0 50 55 0 55 0 0
-50 c0 -43 3 -50 20 -50 19 0 20 7 20 115 0 108 -1 115 -20 115 -17 0 -20 -7
-20 -45 l0 -45 -55 0 -55 0 0 45 c0 38 -3 45 -20 45 -19 0 -20 -7 -20 -115z"/>
<path d="M5680 265 c0 -108 1 -115 20 -115 18 0 20 7 20 88 l0 87 51 -87 c42
-72 55 -88 75 -88 24 0 24 0 24 115 0 108 -1 115 -20 115 -18 0 -20 -7 -20
-87 l-1 -88 -21 40 c-48 94 -80 135 -104 135 -24 0 -24 0 -24 -115z"/>
<path d="M7800 291 c0 -73 3 -93 20 -114 25 -31 62 -41 105 -27 43 14 55 45
55 145 0 78 -2 85 -20 85 -19 0 -20 -7 -20 -89 0 -82 -2 -91 -22 -105 -29 -20
-34 -20 -58 4 -17 17 -20 33 -20 105 0 78 -2 85 -20 85 -18 0 -20 -7 -20 -89z"/>
<path d="M8040 265 c0 -108 1 -115 20 -115 17 0 20 7 20 45 0 44 1 45 33 45
62 0 101 54 76 103 -17 32 -28 37 -91 37 l-58 0 0 -115z"/>
</g>
</svg>
